PathFileType	4	(X/Y/Z)	HSS_squat1.trc
DataRate	CameraRate	NumFrames	NumMarkers	Units	OrigDataRate	OrigDataStartFrame	OrigNumFrames
120.0	120.0	7	44	mm	120.0	953	1088
Frame#	Time		R.Shoulder		Offset		L.Shoulder		R.Elbow		R.Wrist.Radial		R.Wrist		R.Hand		L.Elbow		L.Wrist.Radial		L.Wrist		L.Hand		R.Hip		V.Sacral		L.PSIS		L.Hip		R.Thigh.Upper		R.Thigh.Front		R.Thigh.Rear		X.Shell.Lower.Thigh.Right		R.Knee.Lateral		R.Shank.Upper		R.Shank.Front		R.Shank.Rear		X.Shell.Lower.Shank.Right		R.Ankle.Lateral		R.Heel		R.Toe		L.Thigh.Upper		L.Thigh.Front		L.Thigh.Rear		X.Shell.Lower.Thigh.Left		L.Knee.Lateral		L.Shank.Upper		L.Shank.Front		L.Shank.Rear		X.Shell.Lower.Shank.Left		L.Ankle.Lateral		L.Heel		L.Toe		R.Troc		L.Troc		R.PSIS		L.ASIS		R.ASIS
			X1	Y1	Z1	X2	Y2	Z2	X3	Y3	Z3	X4	Y4	Z4	X5	Y5	Z5	X6	Y6	Z6	X7	Y7	Z7	X8	Y8	Z8	X9	Y9	Z9	X10	Y10	Z10	X11	Y11	Z11	X12	Y12	Z12	X13	Y13	Z13	X14	Y14	Z14	X15	Y15	Z15	X16	Y16	Z16	X17	Y17	Z17	X18	Y18	Z18	X19	Y19	Z19	X20	Y20	Z20	X21	Y21	Z21	X22	Y22	Z22	X23	Y23	Z23	X24	Y24	Z24	X25	Y25	Z25	X26	Y26	Z26	X27	Y27	Z27	X28	Y28	Z28	X29	Y29	Z29	X30	Y30	Z30	X31	Y31	Z31	X32	Y32	Z32	X33	Y33	Z33	X34	Y34	Z34	X35	Y35	Z35	X36	Y36	Z36	X37	Y37	Z37	X38	Y38	Z38	X39	Y39	Z39	X40	Y40	Z40	X41	Y41	Z41	X42	Y42	Z42	X43	Y43	Z43	X44	Y44	Z44

953	7.93333	158.25258	1479.63696	-140.31476	-136.99147	1393.04309	-15.25024	-207.98021	1487.96643	-152.34653	232.75858	1125.13574	-246.15245	57.71782	1054.58740	-426.77768	114.58581	1044.72815	-471.84616	39.90636	1035.34192	-516.77649	-272.93530	1142.12378	-272.51813	-148.99928	1049.34985	-477.98962	-93.72401	1048.30237	-431.70895	-69.12627	1026.96838	-510.83859	126.17313	1033.55249	-127.02740	-21.54216	1026.09082	-2.95767	-62.73382	1034.44873	-7.53311	-169.77008	1034.72253	-126.90537	191.01979	701.48743	-178.93401	182.44539	668.41821	-219.29434	200.60255	660.41772	-160.74025	189.66389	631.20453	-194.88901	177.35298	517.16602	-149.94876	235.45796	374.97577	-128.86258	217.66090	327.28094	-153.82950	224.92535	340.26550	-94.30759	221.66133	297.59274	-114.54544	193.05345	72.53562	-84.68824	145.98264	33.96580	-40.99966	201.35724	31.39611	-238.39815	-225.86093	701.38068	-192.11310	-209.15407	653.58142	-220.29456	-241.05080	662.04742	-167.22829	-234.00226	631.24243	-198.38348	-215.69542	508.35687	-151.45650	-272.89096	315.43326	-107.40603	-259.78125	287.81015	-133.47803	-261.61954	278.00949	-74.06342	-267.85587	245.83617	-94.43835	-239.95631	75.68184	-97.50547	-195.60518	35.27950	-42.53914	-242.13042	32.48656	-241.46436	164.49123	894.29901	-133.11209	-212.36638	906.85815	-111.49571	23.30091	1032.37610	-7.33707	-136.20227	988.05029	-181.51732	94.47883	993.36682	-182.52052
954	7.94167	158.62384	1480.10938	-139.58267	-136.62805	1393.09448	-14.98810	-207.96385	1488.45410	-151.69968	232.68695	1124.63562	-243.66634	57.89280	1053.37573	-423.99612	114.69347	1043.28406	-469.00299	39.90191	1033.40051	-513.99725	-272.51160	1141.67114	-269.98904	-148.86462	1047.73804	-474.93048	-93.36923	1047.12671	-429.01926	-69.04786	1025.03467	-507.89786	126.38567	1033.91870	-128.30313	-21.22002	1026.10388	-4.40879	-62.55516	1034.42151	-9.12318	-169.49730	1035.12292	-128.13625	190.86807	701.54468	-179.08652	182.19225	668.16144	-219.32309	200.31412	660.63867	-160.58379	189.43690	631.14368	-194.62608	177.09927	517.39453	-148.91071	235.30058	375.12784	-128.15775	217.49814	327.50589	-153.02141	224.82138	340.32135	-93.66022	221.53641	297.74933	-113.89663	193.08502	72.51260	-84.59486	146.03349	33.94397	-40.93716	201.33241	31.37988	-238.38908	-225.49811	701.39166	-192.06270	-208.89337	653.41742	-219.97522	-240.75392	662.20306	-166.86783	-233.64946	631.20636	-197.80666	-215.34016	508.53754	-150.05516	-272.71213	315.55914	-106.43502	-259.59201	287.99527	-132.71118	-261.43750	278.03119	-73.13564	-267.68103	245.87146	-93.69489	-239.93764	75.71351	-97.38971	-195.62451	35.27623	-42.57665	-242.11217	32.49297	-241.46327	164.59712	894.61395	-134.52760	-212.12007	907.27167	-112.81358	23.59045	1032.29761	-8.83288	-136.03307	988.84998	-182.90111	94.57397	993.93372	-184.07695
955	7.95000	158.92723	1480.51953	-139.01477	-136.24312	1393.16479	-14.66534	-208.05376	1488.91284	-151.00241	232.49680	1124.11035	-241.18246	57.92612	1052.26074	-421.39252	114.78375	1041.66345	-466.13022	40.01437	1031.48328	-511.25092	-272.09592	1141.12329	-267.38287	-148.88905	1046.04858	-471.85760	-92.52710	1046.65906	-426.04675	-69.07715	1023.29657	-505.14496	126.47906	1034.32385	-129.82860	-21.07031	1026.14429	-5.77315	-62.29258	1034.46130	-10.40027	-169.41672	1035.45789	-129.12848	190.68834	701.60284	-179.21097	181.93069	667.91644	-219.29150	200.08026	660.78790	-160.45558	189.29054	631.15717	-194.36189	176.96765	517.58594	-148.09354	235.11241	375.28101	-127.15390	217.31494	327.68317	-152.32947	224.75667	340.40704	-92.90218	221.41985	297.90814	-113.24025	193.10362	72.50867	-84.54975	146.09090	33.92698	-40.93181	201.30371	31.40244	-238.39488	-225.26813	701.44470	-192.03078	-208.66136	653.27747	-219.67294	-240.22659	662.65247	-166.27534	-233.28377	631.15295	-197.29182	-215.12833	508.79581	-148.77025	-272.50009	315.70621	-105.47743	-259.41669	288.25150	-131.88568	-261.26782	278.05289	-72.38239	-267.47455	246.05545	-92.89178	-239.90593	75.74522	-97.34077	-195.64105	35.25830	-42.54716	-242.05867	32.48851	-241.46530	164.75471	894.84113	-136.18524	-211.87637	907.66071	-114.12086	23.90360	1032.26184	-10.19642	-135.86362	989.61725	-184.26968	94.93983	994.48267	-185.56619
956	7.95833	159.17493	1480.81665	-138.40355	-135.94632	1393.18933	-14.39041	-208.11101	1489.38977	-150.28320	232.45792	1123.62646	-238.59164	58.01709	1051.11377	-418.66434	114.97513	1040.05896	-463.27615	40.26963	1029.41638	-508.57837	-271.67429	1140.65674	-264.80783	-148.70020	1044.40137	-468.98572	-92.32903	1045.32190	-423.31305	-68.96259	1021.19562	-502.22687	126.75495	1034.84485	-131.12584	-20.82399	1026.17944	-7.35684	-62.13885	1034.37756	-11.89078	-169.27921	1035.84082	-130.42467	190.47025	701.67377	-179.35593	181.69690	667.69458	-219.15320	199.85312	660.93616	-160.30428	189.06516	631.12103	-194.01219	176.78383	517.73865	-146.96132	235.04710	375.43860	-126.49507	217.14003	327.92484	-151.70679	224.64362	340.42905	-92.04169	221.36884	298.00253	-112.72062	193.13744	72.50305	-84.45541	146.14996	33.91787	-40.91763	201.28172	31.39775	-238.40306	-225.00479	701.43158	-191.97546	-208.37222	653.08893	-219.24918	-239.82918	662.85645	-166.01465	-232.95831	631.13123	-196.71082	-214.93686	509.04730	-147.46835	-272.28156	315.80435	-104.48273	-259.19614	288.38974	-130.96117	-261.11581	278.02490	-71.59921	-267.34564	246.13252	-92.20106	-239.88170	75.77897	-97.24966	-195.62898	35.22981	-42.54072	-242.05217	32.48143	-241.45230	164.95178	895.06415	-137.56355	-211.63542	908.02576	-115.41728	23.97440	1032.17615	-11.48869	-135.69405	990.35284	-185.62292	94.92329	994.97833	-187.06430
957	7.96667	159.48308	1481.11829	-137.92003	-135.73326	1393.16650	-14.28104	-208.16859	1489.68958	-149.68224	232.29985	1123.00415	-235.92024	58.12563	1049.80005	-415.92261	115.12494	1038.36597	-460.29102	40.47437	1027.32654	-505.80167	-271.20526	1140.11047	-262.43729	-148.68625	1042.66528	-466.11740	-92.10593	1043.98474	-420.61298	-68.92103	1019.27588	-499.40942	126.80195	1035.11511	-132.48616	-20.51687	1026.08191	-8.72661	-61.88572	1034.34229	-12.99209	-169.11389	1036.11560	-131.65205	190.38084	701.75574	-179.40692	181.56767	667.53381	-218.97034	199.69241	661.16040	-160.14322	188.89156	631.10590	-193.65161	176.63867	517.88062	-145.96703	234.91949	375.58923	-125.69585	217.02002	328.13049	-150.87621	224.60326	340.47992	-91.34943	221.28073	298.10806	-112.04018	193.18272	72.48750	-84.40278	146.20958	33.90931	-40.85475	201.26857	31.38611	-238.39146	-224.68057	701.39777	-191.88858	-208.00194	652.84430	-218.77649	-239.43495	663.00702	-165.79034	-232.54437	631.08008	-196.16132	-214.51233	509.17752	-146.06233	-272.05606	315.95114	-103.49705	-258.99533	288.59537	-130.19388	-261.12421	277.80002	-70.95029	-267.21371	246.18169	-91.50578	-239.85684	75.78339	-97.20065	-195.65462	35.21665	-42.51863	-242.04312	32.50101	-241.45602	165.12833	895.29834	-138.91360	-211.39734	908.36737	-116.70264	24.29780	1032.20667	-13.02583	-135.52446	991.05731	-186.96068	95.28799	995.46954	-188.60017
958	7.97500	159.69882	1481.39319	-137.50508	-135.49161	1393.10986	-14.17196	-208.20546	1490.07385	-148.96297	232.62770	1122.64648	-233.00653	58.17352	1048.61682	-413.23920	115.28056	1036.50427	-457.35489	40.74047	1025.15149	-502.87411	-270.89587	1139.65271	-259.94742	-148.52409	1040.87659	-463.02158	-91.79884	1042.71436	-417.90353	-69.10275	1017.27203	-496.60114	127.06174	1035.41284	-134.05492	-20.39412	1026.14807	-10.10380	-61.76611	1034.33191	-14.52822	-168.95776	1036.30493	-132.81090	190.33003	701.80634	-179.41075	181.50943	667.38257	-218.74190	199.60393	661.31927	-159.95117	188.72304	631.06134	-193.18396	176.48442	518.11389	-144.89943	234.73656	375.69897	-124.58791	216.86798	328.31277	-150.05145	224.53773	340.53949	-90.53767	221.11810	298.26093	-111.20061	193.23149	72.47095	-84.31802	146.27475	33.88564	-40.84910	201.25623	31.39627	-238.39656	-224.34538	701.35986	-191.80638	-207.66309	652.54071	-218.28517	-239.06125	663.13324	-165.41115	-232.14774	630.94489	-195.57970	-214.21614	509.41406	-144.79735	-271.83902	316.10275	-102.53209	-258.81570	288.80771	-129.24165	-260.92896	277.81946	-69.99514	-267.09003	246.29631	-90.75633	-239.80954	75.81751	-97.11819	-195.64342	35.17629	-42.51394	-242.03722	32.51902	-241.44748	165.28436	895.57281	-140.34723	-211.16223	908.68628	-117.97668	24.32634	1032.19250	-14.15020	-135.35495	991.73151	-188.28281	95.57710	996.06213	-189.99477
959	7.98333	159.95261	1481.61621	-137.06406	-135.29292	1392.98792	-14.06922	-208.26494	1490.43530	-148.27971	232.35448	1122.05383	-230.77216	58.20996	1047.28247	-410.51562	115.50883	1034.58167	-454.41104	40.94705	1022.96820	-500.14346	-270.43628	1139.14807	-257.56271	-148.51733	1039.12866	-460.01627	-91.68344	1041.35925	-415.08374	-69.11170	1015.18982	-493.77313	127.19843	1035.85547	-135.06448	-20.18733	1026.18604	-11.63735	-61.63579	1034.23010	-15.65069	-168.90349	1036.58972	-134.04704	190.28163	701.89453	-179.36179	181.54921	667.24988	-218.52386	199.53685	661.52472	-159.68100	188.62952	631.04498	-192.59386	176.38948	518.36462	-143.67949	234.68541	375.94623	-123.66024	216.73112	328.58215	-149.22269	224.47624	340.62296	-89.57220	221.09447	298.40176	-110.38955	193.26212	72.46083	-84.24428	146.33505	33.85412	-40.80566	201.26181	31.39730	-238.39511	-224.05981	701.32117	-191.61282	-207.42371	652.34961	-217.96698	-238.71754	663.29578	-165.00227	-231.87080	630.81976	-194.96869	-214.04926	509.55353	-143.50641	-271.63544	316.22968	-101.54910	-258.68228	288.97775	-128.27403	-260.82101	277.89227	-69.17290	-266.90314	246.36220	-89.95131	-239.77240	75.83547	-97.06379	-195.65697	35.16800	-42.51088	-242.05481	32.53516	-241.42744	165.39673	895.81641	-141.41440	-210.93027	908.98279	-119.23918	24.61766	1032.12305	-15.66427	-135.18562	992.37573	-189.58919	95.52009	996.38788	-191.43977
